<svg id="svg" version="1.1" xmlns="http://www.w3.org/2000/svg" xmlns:xlink="http://www.w3.org/1999/xlink" width="400" height="335.20000000000005" viewBox="0, 0, 400,335.20000000000005"><g id="svgg"><path id="path0" d="M193.797 67.216 C 190.078 67.595,184.190 68.803,182.989 69.434 C 182.668 69.603,182.190 69.740,181.926 69.740 C 181.662 69.740,181.019 69.953,180.497 70.212 C 179.975 70.472,179.170 70.832,178.709 71.014 C 170.787 74.128,161.632 80.834,156.412 87.346 C 155.675 88.266,154.991 89.095,154.893 89.187 C 154.481 89.573,152.221 92.816,152.221 93.020 C 152.221 93.142,151.725 94.027,151.119 94.987 C 150.153 96.515,148.700 99.356,147.828 101.425 C 147.063 103.241,146.073 105.890,145.824 106.790 C 145.671 107.343,145.297 108.701,144.993 109.807 C 143.210 116.294,143.194 131.057,144.962 137.133 C 145.257 138.148,145.591 139.355,145.703 139.816 C 145.815 140.277,146.033 140.956,146.187 141.324 C 146.341 141.693,146.876 143.103,147.374 144.458 C 148.881 148.552,151.678 153.494,154.895 157.750 C 157.070 160.628,158.660 162.325,163.080 166.488 C 165.514 168.781,170.512 172.009,175.021 174.201 C 177.142 175.231,179.139 176.215,179.459 176.386 C 179.779 176.557,180.315 176.697,180.649 176.697 C 180.984 176.697,181.401 176.823,181.576 176.976 C 181.751 177.129,182.875 177.523,184.074 177.852 C 185.272 178.181,186.630 178.571,187.091 178.719 C 187.552 178.868,188.684 179.080,189.606 179.192 C 190.528 179.303,192.037 179.533,192.959 179.702 C 195.283 180.129,204.568 180.113,207.209 179.677 C 208.407 179.479,210.142 179.199,211.065 179.054 C 211.987 178.909,213.646 178.527,214.753 178.206 C 215.859 177.885,217.106 177.547,217.524 177.455 C 217.941 177.363,218.365 177.155,218.466 176.993 C 218.566 176.830,218.943 176.697,219.303 176.697 C 219.664 176.697,220.221 176.569,220.541 176.411 C 220.861 176.254,221.727 175.857,222.464 175.528 C 227.443 173.310,233.402 169.681,236.151 167.193 C 239.975 163.733,243.004 160.592,244.607 158.424 C 245.153 157.687,245.915 156.733,246.300 156.306 C 246.685 155.879,247.421 154.747,247.935 153.792 C 248.449 152.836,248.970 151.978,249.091 151.886 C 249.357 151.684,252.473 145.354,252.473 145.016 C 252.473 144.885,252.689 144.303,252.953 143.722 C 257.397 133.948,257.808 115.581,253.811 105.448 C 253.665 105.080,253.356 104.250,253.123 103.604 C 252.165 100.947,249.242 95.207,247.489 92.540 C 245.870 90.077,244.661 88.528,241.247 84.540 C 240.463 83.625,236.035 79.688,234.406 78.458 C 233.795 77.997,232.874 77.280,232.358 76.865 C 231.842 76.450,231.331 76.111,231.221 76.111 C 231.111 76.111,229.962 75.432,228.667 74.602 C 227.373 73.772,226.250 73.093,226.174 73.093 C 226.097 73.093,224.903 72.571,223.522 71.933 C 222.140 71.295,220.619 70.674,220.141 70.554 C 219.664 70.435,219.190 70.202,219.089 70.038 C 218.987 69.874,218.609 69.740,218.249 69.740 C 217.888 69.740,217.332 69.607,217.011 69.444 C 216.458 69.163,214.688 68.683,211.735 68.012 C 206.956 66.927,199.771 66.608,193.797 67.216 M191.785 187.782 C 190.771 187.929,188.583 188.228,186.924 188.445 C 181.748 189.122,179.131 189.617,175.524 190.602 C 174.417 190.904,172.984 191.274,172.339 191.423 C 171.176 191.693,167.427 192.918,166.136 193.451 C 165.767 193.603,164.635 194.062,163.621 194.471 C 160.152 195.868,152.603 199.411,152.221 199.820 C 152.071 199.981,150.991 200.602,149.036 201.652 C 148.667 201.850,148.290 202.087,148.198 202.179 C 148.106 202.272,146.710 203.229,145.096 204.306 C 137.562 209.338,132.219 214.016,125.898 221.115 C 122.788 224.609,123.188 224.119,120.824 227.326 C 118.777 230.103,115.339 235.236,115.339 235.517 C 115.339 235.615,114.841 236.490,114.231 237.462 C 113.622 238.434,112.679 240.134,112.136 241.241 C 111.593 242.347,111.035 243.303,110.897 243.364 C 110.759 243.426,110.645 243.679,110.645 243.926 C 110.645 244.174,110.117 245.520,109.472 246.917 C 108.826 248.315,108.298 249.548,108.298 249.657 C 108.298 249.767,108.082 250.332,107.817 250.913 C 106.988 252.731,104.946 259.036,104.946 259.775 C 104.946 260.163,104.795 260.573,104.610 260.687 C 104.426 260.801,104.275 261.328,104.275 261.859 C 104.275 262.389,104.111 263.248,103.911 263.767 C 101.582 269.805,100.048 297.838,101.547 306.957 C 102.529 312.932,102.366 312.374,104.534 317.184 C 105.841 320.085,109.921 324.963,112.825 327.096 C 113.562 327.637,114.340 328.244,114.553 328.444 C 115.330 329.172,120.724 331.629,122.883 332.238 C 127.772 333.617,127.396 333.610,199.937 333.611 C 272.033 333.613,274.601 333.568,277.028 332.252 C 277.348 332.078,277.876 331.932,278.202 331.926 C 278.527 331.920,279.547 331.544,280.469 331.091 C 281.391 330.637,282.334 330.265,282.565 330.263 C 282.795 330.261,282.984 330.109,282.984 329.925 C 282.984 329.740,283.147 329.589,283.346 329.589 C 285.463 329.589,295.054 319.989,295.054 317.870 C 295.054 317.677,295.205 317.519,295.390 317.519 C 295.574 317.519,295.725 317.278,295.725 316.984 C 295.725 316.690,295.933 316.048,296.187 315.559 C 298.351 311.392,299.078 306.302,299.078 295.323 C 299.078 288.072,298.265 273.174,297.831 272.472 C 297.719 272.291,297.510 271.149,297.367 269.936 C 297.066 267.398,296.677 265.352,296.086 263.202 C 295.858 262.372,295.512 261.090,295.316 260.352 C 294.843 258.574,293.370 253.821,293.029 252.976 C 292.880 252.607,292.130 250.734,291.361 248.815 C 290.592 246.895,289.839 245.084,289.687 244.791 C 289.535 244.498,289.169 243.730,288.873 243.085 C 288.578 242.439,287.743 240.855,287.019 239.564 C 286.295 238.273,285.438 236.689,285.115 236.044 C 284.792 235.398,284.441 234.795,284.335 234.702 C 284.230 234.610,283.471 233.479,282.649 232.188 C 281.827 230.897,281.070 229.765,280.967 229.673 C 280.864 229.581,279.965 228.374,278.969 226.991 C 277.974 225.608,276.999 224.312,276.802 224.112 C 276.606 223.912,275.616 222.791,274.602 221.620 C 268.226 214.260,263.144 209.835,253.721 203.437 C 252.431 202.561,251.313 201.844,251.237 201.844 C 251.161 201.844,250.315 201.346,249.355 200.737 C 247.338 199.457,239.978 195.834,237.625 194.962 C 236.743 194.636,235.942 194.240,235.845 194.083 C 235.748 193.926,235.309 193.797,234.870 193.797 C 234.431 193.797,233.978 193.646,233.864 193.462 C 233.750 193.277,233.425 193.127,233.141 193.127 C 232.857 193.127,232.149 192.920,231.568 192.667 C 230.987 192.414,229.832 192.020,229.003 191.790 C 228.173 191.560,227.117 191.255,226.655 191.111 C 225.800 190.844,222.264 189.985,220.453 189.604 C 218.435 189.179,215.346 188.724,207.879 187.750 C 204.955 187.369,194.477 187.389,191.785 187.782 " stroke="none" fill="#040404" fill-rule="evenodd"></path><path id="path1" d="M0.000 167.645 L 0.000 335.289 200.000 335.289 L 400.000 335.289 400.000 167.645 L 400.000 0.000 200.000 0.000 L 0.000 0.000 0.000 167.645 M207.939 66.755 C 208.251 66.921,209.146 67.058,209.929 67.058 C 210.712 67.058,211.816 67.195,212.382 67.362 C 212.948 67.530,214.317 67.922,215.423 68.234 C 216.530 68.546,217.697 68.937,218.017 69.103 C 218.337 69.269,218.830 69.405,219.111 69.405 C 219.393 69.405,219.886 69.534,220.206 69.691 C 220.526 69.848,221.316 70.210,221.961 70.494 C 226.251 72.386,231.091 74.977,231.294 75.491 C 231.355 75.648,231.583 75.775,231.800 75.775 C 232.017 75.775,232.570 76.115,233.029 76.530 C 233.489 76.945,234.701 77.907,235.724 78.669 C 237.570 80.043,244.761 87.084,244.761 87.517 C 244.761 87.641,245.077 88.106,245.463 88.549 C 248.288 91.790,253.814 101.993,253.814 103.967 C 253.814 104.321,253.927 104.612,254.065 104.613 C 254.204 104.615,254.588 105.558,254.919 106.709 C 255.250 107.860,255.665 109.265,255.841 109.831 C 256.017 110.397,256.161 111.350,256.161 111.949 C 256.161 112.547,256.315 113.324,256.503 113.675 C 257.579 115.687,257.566 132.509,256.488 133.588 C 256.308 133.767,256.161 134.554,256.161 135.336 C 256.161 136.119,256.010 136.852,255.826 136.966 C 255.641 137.080,255.490 137.574,255.490 138.064 C 255.490 138.843,255.050 140.357,254.153 142.666 C 252.789 146.175,251.962 148.048,251.737 148.142 C 251.588 148.203,251.467 148.470,251.467 148.735 C 251.467 149.000,251.090 149.815,250.629 150.545 C 250.168 151.275,249.790 151.959,249.790 152.065 C 249.790 152.309,246.204 157.763,245.667 158.334 C 245.446 158.570,244.283 159.894,243.084 161.276 C 241.073 163.593,238.700 165.936,236.770 167.510 C 236.339 167.860,235.660 168.433,235.261 168.782 C 231.176 172.354,219.567 178.140,215.505 178.628 C 214.812 178.712,214.162 178.915,214.060 179.080 C 213.958 179.245,213.421 179.380,212.867 179.380 C 212.312 179.380,211.573 179.533,211.224 179.719 C 208.570 181.140,191.440 181.145,188.789 179.726 C 188.433 179.536,187.688 179.380,187.133 179.380 C 186.579 179.380,186.032 179.229,185.918 179.044 C 185.804 178.860,185.305 178.709,184.808 178.709 C 183.908 178.709,180.965 177.724,180.513 177.272 C 180.381 177.140,179.995 177.033,179.655 177.033 C 179.314 177.033,178.773 176.892,178.453 176.721 C 178.133 176.550,176.588 175.788,175.021 175.029 C 173.453 174.270,171.873 173.467,171.508 173.245 C 169.416 171.971,165.251 169.231,164.885 168.886 C 164.648 168.664,163.263 167.451,161.806 166.189 C 159.161 163.899,155.482 159.856,153.898 157.497 C 153.437 156.811,152.946 156.248,152.808 156.247 C 152.670 156.246,152.557 156.018,152.557 155.742 C 152.557 155.465,152.406 155.239,152.221 155.239 C 152.037 155.239,151.886 155.095,151.886 154.918 C 151.886 154.742,151.497 154.026,151.022 153.326 C 149.742 151.443,146.186 144.055,146.186 143.280 C 146.186 142.911,146.083 142.506,145.956 142.380 C 145.276 141.700,144.292 137.871,143.141 131.433 C 142.615 128.488,142.626 118.047,143.158 115.507 C 143.390 114.401,143.703 112.816,143.855 111.987 C 144.493 108.492,145.430 105.254,145.956 104.728 C 146.083 104.602,146.186 104.220,146.186 103.879 C 146.186 103.258,146.270 103.041,147.303 100.979 C 147.611 100.364,147.863 99.648,147.863 99.386 C 147.863 99.124,148.013 98.910,148.198 98.910 C 148.382 98.910,148.533 98.681,148.533 98.401 C 148.533 98.120,148.910 97.294,149.371 96.563 C 149.832 95.833,150.210 95.159,150.210 95.065 C 150.210 94.781,153.092 90.376,153.629 89.839 C 153.903 89.564,154.512 88.739,154.982 88.006 C 156.089 86.276,161.920 80.422,164.291 78.660 C 165.305 77.905,166.211 77.206,166.303 77.105 C 166.690 76.685,171.993 73.428,172.292 73.428 C 172.471 73.428,172.668 73.315,172.730 73.177 C 172.791 73.039,173.370 72.682,174.015 72.385 C 177.173 70.931,179.267 69.956,179.794 69.694 C 180.114 69.535,180.607 69.405,180.889 69.405 C 181.170 69.405,181.663 69.273,181.983 69.111 C 184.174 68.004,188.522 67.106,195.138 66.393 C 198.137 66.070,207.135 66.324,207.939 66.755 M211.366 187.451 C 211.901 187.622,212.957 187.760,213.713 187.758 C 215.043 187.753,219.037 188.489,221.147 189.127 C 221.713 189.298,222.515 189.438,222.928 189.438 C 223.749 189.438,226.811 190.307,227.741 190.804 C 228.061 190.975,228.693 191.115,229.146 191.115 C 229.598 191.115,230.062 191.266,230.176 191.450 C 230.290 191.635,230.671 191.785,231.023 191.785 C 231.374 191.785,232.233 192.033,232.931 192.335 C 233.629 192.637,234.577 193.032,235.038 193.212 C 235.499 193.393,236.138 193.673,236.458 193.836 C 236.778 193.999,237.189 194.132,237.371 194.132 C 238.145 194.132,249.280 199.578,249.790 200.206 C 249.883 200.320,250.298 200.518,250.712 200.648 C 251.127 200.777,251.467 201.024,251.467 201.196 C 251.467 201.368,251.621 201.509,251.809 201.509 C 252.216 201.509,254.938 203.243,255.099 203.604 C 255.161 203.743,255.425 203.856,255.686 203.856 C 255.947 203.856,256.161 203.997,256.161 204.169 C 256.161 204.341,256.436 204.569,256.772 204.675 C 257.109 204.782,257.675 205.132,258.031 205.452 C 258.387 205.773,259.772 206.857,261.108 207.861 C 262.444 208.866,263.537 209.798,263.537 209.934 C 263.537 210.070,263.801 210.268,264.124 210.373 C 266.225 211.061,276.436 222.214,281.391 229.233 C 283.005 231.519,284.325 233.457,284.325 233.539 C 284.325 233.622,284.977 234.710,285.773 235.956 C 287.131 238.083,290.616 244.957,291.851 247.946 C 292.155 248.684,292.548 249.550,292.724 249.870 C 292.899 250.190,293.043 250.731,293.043 251.071 C 293.043 251.412,293.138 251.786,293.255 251.902 C 293.604 252.252,295.370 257.615,295.380 258.357 C 295.386 258.735,295.517 259.188,295.672 259.363 C 296.051 259.791,297.086 263.976,297.740 267.728 C 297.901 268.650,298.178 270.235,298.357 271.249 C 300.099 281.139,299.884 308.445,298.028 313.065 C 297.822 313.578,297.537 314.300,297.394 314.669 C 294.407 322.393,287.995 328.841,280.302 331.859 C 279.841 332.040,279.049 332.354,278.542 332.558 C 274.975 333.988,277.248 333.948,199.984 333.948 C 147.016 333.948,126.307 333.844,125.152 333.572 C 117.724 331.822,112.629 328.735,107.460 322.852 C 106.472 321.727,103.940 318.022,103.940 317.701 C 103.940 317.611,103.585 316.741,103.152 315.768 C 100.716 310.292,100.612 309.375,100.596 293.210 C 100.583 279.590,100.727 276.631,101.645 271.584 C 101.830 270.570,102.052 269.061,102.140 268.231 C 102.227 267.402,102.432 266.421,102.595 266.052 C 102.759 265.683,102.966 264.853,103.056 264.208 C 103.292 262.515,104.065 259.612,104.359 259.318 C 104.497 259.180,104.610 258.750,104.610 258.364 C 104.610 257.977,104.929 256.833,105.319 255.821 C 105.708 254.809,106.103 253.565,106.196 253.055 C 106.288 252.546,106.497 252.047,106.661 251.946 C 106.824 251.845,106.957 251.549,106.957 251.289 C 106.957 251.028,107.353 249.943,107.836 248.878 C 108.319 247.812,108.907 246.488,109.143 245.935 C 109.974 243.988,112.326 239.212,113.188 237.720 C 114.711 235.085,116.157 232.862,116.423 232.747 C 116.565 232.685,116.681 232.490,116.681 232.313 C 116.681 231.932,121.658 224.852,122.779 223.637 C 123.205 223.175,124.384 221.824,125.398 220.634 C 128.096 217.468,132.473 213.164,135.866 210.338 C 137.673 208.833,140.375 206.685,141.170 206.120 C 143.572 204.412,146.935 202.179,147.103 202.179 C 147.209 202.179,147.763 201.829,148.334 201.400 C 148.904 200.972,149.598 200.522,149.874 200.402 C 150.151 200.281,150.981 199.808,151.718 199.350 C 152.456 198.893,153.588 198.273,154.233 197.974 C 155.711 197.287,156.169 197.061,157.418 196.401 C 159.077 195.525,162.275 194.132,162.629 194.132 C 162.811 194.132,163.222 193.999,163.542 193.836 C 163.862 193.673,164.501 193.393,164.962 193.212 C 165.423 193.032,166.371 192.637,167.069 192.335 C 167.767 192.033,168.626 191.785,168.977 191.785 C 169.329 191.785,169.700 191.651,169.801 191.487 C 169.902 191.323,170.477 191.109,171.078 191.010 C 171.679 190.912,173.001 190.575,174.015 190.262 C 175.029 189.948,176.387 189.625,177.033 189.542 C 177.678 189.460,178.433 189.301,178.709 189.189 C 179.488 188.873,183.286 188.133,186.253 187.718 C 191.969 186.919,209.134 186.736,211.366 187.451 " stroke="none" fill="#fbfbfb" fill-rule="evenodd"></path><path id="path2" d="M198.743 66.297 C 199.526 66.368,200.809 66.368,201.593 66.297 C 202.376 66.227,201.735 66.169,200.168 66.169 C 198.600 66.169,197.959 66.227,198.743 66.297 M192.288 66.723 L 191.618 67.011 192.288 66.995 C 192.657 66.986,193.412 66.863,193.965 66.723 L 194.971 66.467 193.965 66.450 C 193.412 66.442,192.657 66.564,192.288 66.723 M205.560 66.510 C 205.637 66.578,206.303 66.735,207.041 66.858 C 208.002 67.019,208.240 66.986,207.879 66.740 C 207.427 66.432,205.224 66.214,205.560 66.510 M187.427 67.406 C 186.966 67.559,185.933 67.855,185.131 68.065 C 184.329 68.274,183.744 68.516,183.831 68.603 C 183.917 68.690,185.101 68.465,186.462 68.105 C 187.822 67.744,189.313 67.381,189.774 67.299 C 190.387 67.189,190.298 67.146,189.438 67.139 C 188.793 67.134,187.888 67.254,187.427 67.406 M210.562 67.374 C 211.207 67.529,212.414 67.812,213.244 68.002 C 214.074 68.193,215.130 68.446,215.591 68.564 C 216.281 68.742,216.328 68.716,215.860 68.415 C 215.192 67.987,212.635 67.388,210.729 67.214 L 209.388 67.092 210.562 67.374 M179.715 69.724 C 179.438 69.878,178.778 70.176,178.247 70.387 C 177.716 70.598,177.362 70.851,177.460 70.949 C 177.558 71.048,177.917 70.978,178.257 70.794 C 178.598 70.611,179.480 70.231,180.218 69.950 C 180.964 69.666,181.262 69.440,180.889 69.442 C 180.520 69.443,179.992 69.570,179.715 69.724 M219.782 69.950 C 220.520 70.231,221.402 70.611,221.743 70.794 C 222.083 70.978,222.442 71.048,222.540 70.949 C 222.638 70.851,222.284 70.598,221.753 70.387 C 221.222 70.176,220.526 69.869,220.206 69.704 C 219.886 69.540,219.357 69.413,219.032 69.422 C 218.707 69.432,219.044 69.669,219.782 69.950 M225.314 72.379 C 226.697 73.081,228.621 74.128,229.589 74.707 C 230.557 75.285,231.350 75.646,231.350 75.510 C 231.350 75.129,223.843 71.072,223.174 71.093 C 222.968 71.099,223.931 71.678,225.314 72.379 M174.202 72.265 C 173.366 72.898,173.676 72.895,174.899 72.257 C 175.427 71.981,175.633 71.760,175.356 71.765 C 175.080 71.769,174.560 71.995,174.202 72.265 M169.321 75.104 C 163.479 78.926,156.655 85.113,154.892 88.186 L 154.221 89.355 155.149 88.185 C 158.686 83.725,164.476 78.585,169.824 75.159 C 171.299 74.214,172.355 73.444,172.171 73.450 C 171.987 73.455,170.704 74.199,169.321 75.104 M232.510 76.611 C 233.056 77.057,233.568 77.357,233.647 77.278 C 233.840 77.085,232.278 75.797,231.852 75.799 C 231.668 75.799,231.964 76.165,232.510 76.611 M235.038 78.343 C 239.749 82.097,245.661 88.814,248.932 94.132 C 249.641 95.285,250.289 96.228,250.373 96.228 C 250.715 96.228,248.117 92.127,245.381 88.349 C 243.641 85.945,237.570 79.932,235.373 78.436 C 234.066 77.546,234.021 77.534,235.038 78.343 M151.928 92.234 C 150.954 93.726,150.210 94.999,150.274 95.063 C 150.338 95.128,151.249 93.907,152.297 92.351 C 153.345 90.795,154.089 89.522,153.951 89.522 C 153.812 89.522,152.902 90.743,151.928 92.234 M149.223 96.773 C 148.828 97.442,148.553 98.131,148.610 98.303 C 148.668 98.475,149.049 97.928,149.458 97.087 C 150.348 95.254,150.221 95.083,149.223 96.773 M250.461 96.612 C 250.461 97.018,251.867 99.627,252.010 99.485 C 252.098 99.397,251.845 98.741,251.447 98.028 C 250.693 96.675,250.461 96.342,250.461 96.612 M252.165 100.279 C 252.150 100.571,252.251 100.923,252.389 101.062 C 252.527 101.200,252.896 101.942,253.208 102.710 C 253.521 103.479,253.776 103.881,253.775 103.604 C 253.772 102.888,252.199 99.638,252.165 100.279 M147.168 101.130 C 146.957 101.661,146.650 102.358,146.485 102.678 C 146.321 102.998,146.194 103.526,146.203 103.851 C 146.213 104.176,146.450 103.839,146.731 103.101 C 147.012 102.364,147.392 101.482,147.575 101.141 C 147.759 100.800,147.829 100.441,147.731 100.343 C 147.633 100.245,147.380 100.599,147.168 101.130 M254.609 106.622 C 255.058 109.023,256.005 112.073,256.098 111.417 C 256.156 111.012,256.043 110.380,255.847 110.014 C 255.651 109.648,255.490 109.054,255.490 108.694 C 255.490 108.334,255.257 107.532,254.972 106.912 C 254.573 106.045,254.489 105.978,254.609 106.622 M144.842 107.679 C 144.630 108.481,144.293 109.703,144.094 110.396 C 143.894 111.088,143.810 111.734,143.906 111.830 C 144.003 111.927,144.261 111.285,144.480 110.404 C 144.698 109.522,145.035 108.300,145.227 107.687 C 145.420 107.073,145.498 106.493,145.402 106.397 C 145.306 106.300,145.053 106.877,144.842 107.679 M143.318 114.483 C 143.191 115.156,143.163 115.781,143.256 115.874 C 143.348 115.966,143.527 115.491,143.653 114.818 C 143.779 114.145,143.807 113.519,143.715 113.427 C 143.622 113.335,143.444 113.810,143.318 114.483 M256.317 113.998 C 257.188 117.613,257.174 128.872,256.294 132.942 C 256.138 133.666,256.180 133.852,256.446 133.604 C 257.572 132.555,257.601 115.476,256.479 113.728 C 256.178 113.259,256.150 113.306,256.317 113.998 M142.716 120.620 C 142.604 122.972,142.638 126.178,142.792 127.745 C 143.030 130.170,143.079 129.532,143.120 123.470 C 143.175 115.414,143.017 114.301,142.716 120.620 M143.213 131.769 C 143.194 132.414,143.325 133.168,143.504 133.445 C 143.904 134.064,143.904 133.173,143.504 131.601 L 143.248 130.595 143.213 131.769 M144.014 135.960 C 144.494 138.517,144.860 139.896,145.196 140.420 C 145.497 140.888,145.523 140.841,145.346 140.151 C 145.227 139.690,145.001 138.709,144.843 137.972 C 144.467 136.212,143.721 134.404,144.014 135.960 M255.871 135.513 C 255.846 135.821,255.728 136.349,255.609 136.687 C 255.441 137.161,255.486 137.214,255.805 136.920 C 256.032 136.711,256.150 136.183,256.067 135.747 C 255.985 135.311,255.896 135.206,255.871 135.513 M255.080 138.474 C 254.951 139.120,254.756 140.025,254.647 140.486 C 254.517 141.034,254.634 140.920,254.984 140.160 C 255.279 139.520,255.474 138.615,255.417 138.149 C 255.327 137.412,255.283 137.454,255.080 138.474 M146.203 143.225 C 146.181 143.957,147.490 147.005,147.727 146.769 C 147.827 146.669,147.759 146.308,147.575 145.967 C 147.392 145.627,147.012 144.744,146.731 144.007 C 146.450 143.269,146.213 142.917,146.203 143.225 M252.595 145.721 C 252.018 147.083,251.640 148.197,251.757 148.197 C 252.013 148.195,253.959 143.533,253.775 143.363 C 253.704 143.297,253.173 144.359,252.595 145.721 M147.863 147.307 C 147.863 147.736,150.934 153.395,151.440 153.898 C 151.718 154.174,151.610 153.797,151.201 153.060 C 150.791 152.322,149.935 150.738,149.298 149.539 C 148.104 147.293,147.863 146.917,147.863 147.307 M250.542 150.021 C 250.134 150.862,249.858 151.551,249.929 151.551 C 250.192 151.551,251.491 149.109,251.390 148.805 C 251.332 148.633,250.951 149.180,250.542 150.021 M247.484 155.089 C 242.294 162.835,234.293 170.069,226.572 173.995 C 226.065 174.252,225.701 174.514,225.763 174.576 C 226.061 174.874,233.446 170.369,235.261 168.782 C 235.660 168.433,236.339 167.860,236.770 167.510 C 238.700 165.936,241.073 163.593,243.084 161.276 C 244.283 159.894,245.446 158.570,245.667 158.334 C 246.349 157.608,249.856 152.176,249.727 152.046 C 249.660 151.979,248.650 153.348,247.484 155.089 M152.557 155.909 C 152.557 156.094,152.670 156.246,152.808 156.247 C 152.946 156.248,153.437 156.811,153.898 157.497 C 155.482 159.856,159.161 163.899,161.806 166.189 C 163.263 167.451,164.648 168.664,164.885 168.886 C 165.758 169.707,171.057 173.062,171.221 172.898 C 171.314 172.805,171.038 172.546,170.607 172.322 C 166.030 169.949,157.967 162.621,154.117 157.334 C 152.814 155.546,152.557 155.311,152.557 155.909 M171.843 173.357 C 172.068 173.720,175.442 175.383,175.611 175.213 C 175.686 175.138,174.832 174.630,173.714 174.084 C 172.595 173.538,171.753 173.211,171.843 173.357 M224.459 174.973 C 224.284 175.130,223.260 175.616,222.183 176.052 C 221.107 176.489,220.376 176.895,220.559 176.957 C 220.937 177.082,225.314 175.165,225.314 174.874 C 225.314 174.591,224.820 174.648,224.459 174.973 M176.549 175.849 C 176.907 176.119,177.455 176.346,177.767 176.351 C 178.079 176.357,178.428 176.513,178.541 176.697 C 178.655 176.882,179.004 177.020,179.316 177.005 C 179.628 176.989,179.128 176.621,178.206 176.187 C 176.272 175.276,175.615 175.142,176.549 175.849 M180.485 177.218 C 180.938 177.715,183.860 178.711,184.744 178.670 C 185.430 178.638,185.461 178.603,184.912 178.474 C 184.242 178.317,182.155 177.643,180.889 177.174 C 180.512 177.035,180.335 177.054,180.485 177.218 M216.932 178.039 C 216.655 178.217,215.977 178.388,215.423 178.419 C 214.514 178.469,214.499 178.487,215.265 178.607 C 215.731 178.680,216.637 178.512,217.277 178.234 C 217.917 177.957,218.215 177.726,217.938 177.722 C 217.661 177.717,217.209 177.860,216.932 178.039 M185.918 179.044 C 186.032 179.229,186.456 179.369,186.860 179.356 C 187.568 179.333,187.570 179.322,186.924 179.044 C 186.001 178.648,185.673 178.648,185.918 179.044 M213.076 179.044 C 212.430 179.322,212.432 179.333,213.140 179.356 C 213.544 179.369,213.968 179.229,214.082 179.044 C 214.327 178.648,213.999 178.648,213.076 179.044 M188.840 179.705 C 191.112 181.150,208.920 181.143,211.172 179.695 C 211.635 179.398,211.585 179.369,210.897 179.532 C 205.635 180.779,195.746 180.779,189.271 179.532 C 188.458 179.376,188.375 179.409,188.840 179.705 M199.417 186.993 C 199.834 187.073,200.438 187.070,200.758 186.986 C 201.079 186.903,200.738 186.837,200.000 186.841 C 199.262 186.844,199.000 186.913,199.417 186.993 M188.600 187.434 C 188.186 187.617,189.021 187.654,190.780 187.532 C 192.347 187.424,193.692 187.280,193.769 187.213 C 194.072 186.949,189.229 187.157,188.600 187.434 M206.231 187.213 C 206.308 187.280,207.653 187.424,209.220 187.532 C 210.979 187.654,211.814 187.617,211.400 187.434 C 210.771 187.157,205.928 186.949,206.231 187.213 M182.733 188.310 L 181.224 188.770 182.733 188.568 C 183.562 188.457,185.071 188.252,186.085 188.113 L 187.930 187.861 186.085 187.855 C 185.071 187.852,183.562 188.057,182.733 188.310 M214.082 188.094 C 215.004 188.225,216.438 188.429,217.267 188.548 L 218.776 188.764 217.100 188.270 C 216.178 187.998,214.744 187.793,213.915 187.816 L 212.406 187.856 214.082 188.094 M178.877 189.103 C 178.632 189.500,178.960 189.500,179.883 189.103 C 180.529 188.825,180.527 188.814,179.819 188.791 C 179.415 188.778,178.991 188.919,178.877 189.103 M220.117 189.103 C 221.120 189.534,221.957 189.534,221.291 189.103 C 221.014 188.924,220.486 188.786,220.117 188.797 L 219.447 188.815 220.117 189.103 M175.524 189.762 C 175.155 189.915,174.197 190.217,173.396 190.433 C 172.594 190.649,171.990 190.876,172.055 190.937 C 172.119 190.999,173.529 190.696,175.189 190.265 C 176.848 189.834,177.754 189.482,177.200 189.483 C 176.647 189.483,175.893 189.609,175.524 189.762 M223.470 189.949 C 225.674 190.561,226.859 190.549,225.147 189.932 C 224.409 189.666,223.353 189.456,222.800 189.466 C 221.980 189.480,222.104 189.570,223.470 189.949 M169.824 191.450 C 169.579 191.847,169.907 191.847,170.830 191.450 C 171.476 191.172,171.474 191.161,170.766 191.138 C 170.362 191.125,169.938 191.266,169.824 191.450 M229.170 191.450 C 230.093 191.847,230.421 191.847,230.176 191.450 C 230.062 191.266,229.638 191.125,229.234 191.138 C 228.526 191.161,228.524 191.172,229.170 191.450 M167.309 192.288 C 166.209 192.917,166.921 192.926,168.360 192.301 C 169.139 191.963,169.281 191.811,168.818 191.810 C 168.449 191.810,167.770 192.025,167.309 192.288 M231.182 192.024 C 231.551 192.113,231.996 192.322,232.171 192.489 C 232.346 192.655,232.723 192.786,233.009 192.779 C 233.339 192.772,233.223 192.592,232.691 192.288 C 232.230 192.025,231.551 191.821,231.182 191.836 L 230.511 191.863 231.182 192.024 M163.453 193.797 C 163.340 193.982,163.033 194.132,162.772 194.132 C 162.060 194.132,156.331 196.759,156.038 197.220 C 155.955 197.350,157.062 196.931,158.497 196.288 C 159.932 195.645,161.408 194.993,161.777 194.839 C 163.954 193.930,164.728 193.502,164.228 193.483 C 163.916 193.472,163.567 193.613,163.453 193.797 M236.044 193.873 C 237.583 194.551,239.202 195.109,239.311 195.001 C 239.370 194.942,238.923 194.710,238.318 194.485 C 237.712 194.260,236.955 193.938,236.635 193.769 C 236.315 193.600,235.862 193.471,235.629 193.483 C 235.396 193.495,235.583 193.670,236.044 193.873 M241.744 196.312 C 242.845 196.942,243.390 196.949,242.562 196.322 C 242.204 196.052,241.685 195.831,241.408 195.831 C 241.117 195.832,241.257 196.034,241.744 196.312 M243.420 196.957 C 243.420 197.066,244.327 197.594,245.435 198.131 C 246.543 198.668,247.363 198.968,247.258 198.798 C 247.104 198.548,245.788 197.842,243.671 196.874 C 243.533 196.811,243.420 196.848,243.420 196.957 M153.953 197.982 C 152.448 198.811,152.402 199.229,153.898 198.487 C 154.728 198.075,155.469 197.681,155.546 197.612 C 155.882 197.307,154.663 197.591,153.953 197.982 M150.880 199.832 C 150.419 200.193,149.872 200.491,149.664 200.495 C 149.456 200.500,149.087 200.743,148.843 201.036 C 148.421 201.545,151.336 200.103,152.037 199.456 C 152.673 198.869,151.712 199.182,150.880 199.832 M247.946 199.414 C 248.586 200.054,251.467 201.494,251.467 201.173 C 251.467 200.996,251.090 200.756,250.629 200.641 C 250.168 200.525,249.790 200.313,249.790 200.170 C 249.790 200.027,249.526 199.817,249.204 199.704 C 248.881 199.590,248.391 199.402,248.114 199.287 C 247.778 199.148,247.723 199.190,247.946 199.414 M147.248 202.006 C 145.989 202.699,145.582 203.268,146.767 202.677 C 147.362 202.380,147.937 201.996,148.043 201.823 C 148.275 201.448,148.249 201.454,147.248 202.006 M251.802 201.598 C 251.802 201.678,252.557 202.213,253.479 202.786 C 254.401 203.359,255.154 203.721,255.152 203.591 C 255.151 203.460,254.510 202.976,253.728 202.515 C 252.037 201.519,251.802 201.407,251.802 201.598 M143.671 204.371 C 140.786 206.349,139.208 207.556,135.866 210.338 C 132.479 213.159,128.102 217.462,125.398 220.631 C 124.384 221.820,123.131 223.267,122.614 223.846 C 121.617 224.964,117.999 230.075,118.608 229.505 C 118.805 229.321,119.772 228.102,120.757 226.797 C 123.552 223.095,125.300 221.064,128.919 217.316 C 133.396 212.678,136.193 210.311,144.698 203.958 C 146.231 202.813,145.537 203.093,143.671 204.371 M255.490 203.992 C 255.490 204.067,256.961 205.183,258.759 206.473 C 260.557 207.763,262.368 209.141,262.783 209.536 C 263.198 209.930,263.537 210.125,263.537 209.970 C 263.537 209.814,262.444 208.866,261.108 207.861 C 259.772 206.857,258.387 205.773,258.031 205.452 C 257.675 205.132,257.109 204.782,256.772 204.675 C 256.436 204.569,256.161 204.341,256.161 204.169 C 256.161 203.997,256.010 203.856,255.826 203.856 C 255.641 203.856,255.490 203.917,255.490 203.992 M264.878 211.250 C 270.353 216.228,274.610 220.833,280.238 227.867 C 280.664 228.399,280.438 227.990,279.735 226.957 C 278.523 225.176,277.116 223.429,274.111 219.970 C 272.128 217.689,265.146 210.914,264.376 210.523 C 264.007 210.336,264.233 210.663,264.878 211.250 M283.618 233.110 C 285.058 235.369,286.814 238.310,287.519 239.645 C 288.225 240.980,288.866 242.009,288.944 241.931 C 289.127 241.747,287.576 238.841,285.756 235.956 C 284.969 234.710,284.325 233.623,284.325 233.542 C 284.325 233.326,281.279 229.003,281.128 229.003 C 281.057 229.003,282.178 230.851,283.618 233.110 M117.337 231.034 C 116.936 231.597,116.681 232.132,116.770 232.221 C 116.860 232.311,117.248 231.850,117.634 231.196 C 118.494 229.737,118.326 229.645,117.337 231.034 M115.339 234.112 C 112.122 239.550,110.233 243.119,110.455 243.341 C 110.539 243.425,110.948 242.760,111.364 241.864 C 111.781 240.968,113.131 238.537,114.366 236.463 C 115.600 234.388,116.513 232.692,116.394 232.693 C 116.275 232.695,115.801 233.333,115.339 234.112 M109.327 245.454 C 108.906 246.385,108.631 247.218,108.717 247.303 C 108.803 247.389,109.198 246.678,109.595 245.722 C 110.533 243.466,110.321 243.254,109.327 245.454 M289.705 244.007 C 289.732 244.451,291.335 247.289,291.351 246.920 C 291.370 246.486,290.074 243.755,289.850 243.755 C 289.762 243.755,289.697 243.868,289.705 244.007 M291.366 247.534 C 291.366 248.132,293.017 251.475,293.029 250.900 C 293.036 250.496,292.903 250.079,292.733 249.974 C 292.563 249.869,292.325 249.334,292.205 248.785 C 292.029 247.987,291.366 246.998,291.366 247.534 M107.304 250.199 C 107.076 250.804,106.729 251.638,106.532 252.053 C 106.335 252.468,106.255 252.888,106.354 252.987 C 106.453 253.086,106.876 252.327,107.293 251.299 C 107.710 250.272,107.976 249.356,107.884 249.265 C 107.793 249.173,107.532 249.594,107.304 250.199 M293.723 253.674 C 293.743 254.273,295.337 258.668,295.363 258.195 C 295.378 257.931,295.069 256.799,294.676 255.680 C 293.960 253.640,293.705 253.102,293.723 253.674 M105.951 253.847 C 105.951 253.926,105.650 254.817,105.281 255.826 C 104.912 256.835,104.622 257.889,104.637 258.168 C 104.652 258.447,105.018 257.622,105.452 256.334 C 105.886 255.046,106.176 253.927,106.096 253.847 C 106.017 253.767,105.951 253.767,105.951 253.847 M104.163 259.402 C 104.040 259.525,103.949 259.940,103.961 260.324 C 103.980 260.966,104.008 260.958,104.303 260.220 C 104.632 259.399,104.564 259.002,104.163 259.402 M296.209 261.693 C 296.539 263.835,296.988 265.407,297.023 264.543 C 297.041 264.082,296.831 263.026,296.555 262.196 C 296.239 261.245,296.111 261.059,296.209 261.693 M103.345 262.546 C 103.119 263.270,102.951 264.279,102.973 264.789 C 103.000 265.446,103.052 265.521,103.151 265.046 C 103.228 264.677,103.458 263.730,103.662 262.941 C 104.134 261.111,103.888 260.804,103.345 262.546 M297.105 265.884 C 297.120 266.161,297.254 266.764,297.402 267.225 L 297.670 268.064 297.698 267.225 C 297.714 266.764,297.580 266.161,297.402 265.884 C 297.113 265.437,297.080 265.437,297.105 265.884 M102.487 266.108 C 102.364 266.231,102.277 266.797,102.293 267.365 L 102.324 268.399 102.648 267.273 C 102.972 266.147,102.908 265.686,102.487 266.108 M297.884 270.075 C 298.346 272.552,298.825 277.153,299.070 281.475 L 299.335 286.169 299.248 281.475 C 299.151 276.264,298.552 270.399,298.033 269.593 C 297.781 269.202,297.743 269.324,297.884 270.075 M101.799 270.134 C 100.060 275.724,100.197 309.735,101.969 312.468 C 102.228 312.867,102.257 312.793,102.089 312.154 C 101.050 308.210,100.946 306.589,100.934 294.086 C 100.923 282.046,101.198 275.958,101.949 271.612 C 102.259 269.821,102.169 268.942,101.799 270.134 M299.143 305.007 C 299.087 306.791,298.735 308.892,297.888 312.490 C 297.734 313.144,297.766 313.211,298.035 312.796 C 298.667 311.820,299.446 307.128,299.326 305.019 L 299.207 302.934 299.143 305.007 M102.291 313.684 C 102.276 313.880,102.632 314.786,103.084 315.696 C 103.535 316.606,103.903 317.200,103.901 317.016 C 103.897 316.521,102.324 313.266,102.291 313.684 M296.402 316.204 C 296.150 316.835,295.294 318.370,294.500 319.614 C 293.706 320.859,293.167 321.878,293.303 321.878 C 293.802 321.878,297.161 315.960,296.977 315.406 C 296.913 315.214,296.654 315.573,296.402 316.204 M103.940 317.625 C 103.940 319.872,115.763 331.625,116.890 330.498 C 116.965 330.423,116.087 329.781,114.938 329.073 C 112.064 327.299,107.918 323.250,106.054 320.398 C 104.368 317.817,103.940 317.256,103.940 317.625 M290.398 324.690 C 289.045 326.052,286.828 327.893,285.472 328.780 C 284.115 329.667,283.060 330.447,283.126 330.513 C 283.649 331.037,290.836 325.235,292.680 322.800 C 293.558 321.641,292.817 322.255,290.398 324.690 M117.874 331.087 C 118.232 331.358,118.780 331.584,119.092 331.590 C 119.404 331.596,119.752 331.752,119.866 331.936 C 119.980 332.121,120.328 332.262,120.640 332.250 C 120.952 332.238,120.679 331.994,120.034 331.707 C 119.388 331.420,118.598 331.053,118.278 330.890 C 117.375 330.433,117.152 330.542,117.874 331.087 M281.308 331.126 C 280.785 331.416,280.666 331.593,280.992 331.596 C 281.280 331.599,281.808 331.379,282.166 331.109 C 282.979 330.493,282.428 330.504,281.308 331.126 M121.776 332.591 C 123.555 333.732,124.682 333.750,199.329 333.855 C 277.122 333.964,276.087 333.980,278.268 332.566 C 278.670 332.305,278.597 332.274,277.955 332.435 C 273.130 333.643,275.126 333.613,200.000 333.613 C 124.874 333.613,126.870 333.643,122.045 332.435 C 121.354 332.262,121.307 332.289,121.776 332.591 " stroke="none" fill="#a2a09e" fill-rule="evenodd"></path><path id="path3" d="M195.562 66.628 C 196.072 66.705,196.826 66.703,197.238 66.623 C 197.651 66.544,197.234 66.481,196.312 66.483 C 195.390 66.486,195.052 66.551,195.562 66.628 M202.934 66.627 C 203.441 66.704,204.271 66.704,204.778 66.627 C 205.285 66.551,204.870 66.488,203.856 66.488 C 202.842 66.488,202.427 66.551,202.934 66.627 M256.946 123.554 C 256.948 125.029,257.007 125.591,257.077 124.803 C 257.148 124.014,257.147 122.807,257.075 122.120 C 257.003 121.434,256.945 122.079,256.946 123.554 M238.872 165.046 L 237.888 166.136 238.977 165.151 C 239.577 164.609,240.067 164.119,240.067 164.061 C 240.067 163.802,239.790 164.030,238.872 165.046 M194.719 180.287 C 195.134 180.367,195.813 180.367,196.228 180.287 C 196.643 180.207,196.303 180.142,195.474 180.142 C 194.644 180.142,194.304 180.207,194.719 180.287 M203.772 180.287 C 204.187 180.367,204.866 180.367,205.281 180.287 C 205.696 180.207,205.356 180.142,204.526 180.142 C 203.697 180.142,203.357 180.207,203.772 180.287 M198.735 180.628 C 199.330 180.702,200.387 180.703,201.082 180.630 C 201.778 180.558,201.291 180.497,200.000 180.496 C 198.709 180.494,198.140 180.554,198.735 180.628 M194.887 187.336 C 195.578 187.408,196.710 187.408,197.402 187.336 C 198.093 187.263,197.527 187.204,196.144 187.204 C 194.761 187.204,194.195 187.263,194.887 187.336 M202.598 187.336 C 203.290 187.408,204.422 187.408,205.113 187.336 C 205.805 187.263,205.239 187.204,203.856 187.204 C 202.473 187.204,201.907 187.263,202.598 187.336 M298.820 278.961 C 298.820 279.606,298.889 279.870,298.974 279.547 C 299.058 279.225,299.058 278.697,298.974 278.374 C 298.889 278.051,298.820 278.315,298.820 278.961 M299.224 294.552 C 299.224 299.346,299.271 301.261,299.329 298.807 C 299.386 296.352,299.386 292.430,299.328 290.089 C 299.271 287.749,299.224 289.757,299.224 294.552 " stroke="none" fill="#7c7c79" fill-rule="evenodd"></path><path id="path4" d="M198.735 66.629 C 199.330 66.703,200.387 66.705,201.082 66.632 C 201.778 66.559,201.291 66.499,200.000 66.497 C 198.709 66.496,198.140 66.555,198.735 66.629 M192.624 67.076 C 191.810 67.233,192.469 67.264,194.300 67.156 C 195.960 67.058,197.381 66.920,197.457 66.850 C 197.696 66.632,194.037 66.804,192.624 67.076 M202.543 66.850 C 202.619 66.920,204.040 67.062,205.700 67.165 C 207.846 67.299,208.330 67.268,207.376 67.057 C 206.053 66.765,202.272 66.603,202.543 66.850 M188.265 67.728 L 187.594 68.017 188.265 68.017 C 188.634 68.017,189.237 67.887,189.606 67.728 L 190.277 67.440 189.606 67.440 C 189.237 67.440,188.634 67.570,188.265 67.728 M210.394 67.728 C 210.763 67.887,211.366 68.017,211.735 68.017 L 212.406 68.017 211.735 67.728 C 211.366 67.570,210.763 67.440,210.394 67.440 L 209.723 67.440 210.394 67.728 M184.744 68.583 C 183.915 68.821,183.537 69.025,183.906 69.037 C 184.275 69.050,185.256 68.845,186.085 68.584 C 187.961 67.993,186.808 67.992,184.744 68.583 M213.915 68.539 C 214.560 68.803,215.465 69.015,215.926 69.010 C 216.597 69.003,216.530 68.937,215.591 68.681 C 213.425 68.091,212.662 68.026,213.915 68.539 M179.260 70.423 C 177.439 71.114,176.994 71.417,177.795 71.417 C 178.092 71.417,178.428 71.266,178.541 71.081 C 178.655 70.897,179.013 70.746,179.335 70.746 C 179.658 70.746,180.215 70.524,180.573 70.254 C 181.382 69.642,181.280 69.655,179.260 70.423 M221.246 70.927 C 221.866 71.196,222.470 71.411,222.587 71.405 C 223.023 71.380,221.103 70.435,220.620 70.436 C 220.344 70.436,220.625 70.657,221.246 70.927 M174.728 72.457 C 173.553 73.007,172.657 73.523,172.737 73.603 C 172.900 73.766,177.033 71.811,177.033 71.570 C 177.033 71.367,177.158 71.318,174.728 72.457 M224.979 72.590 C 225.440 72.854,225.968 73.069,226.153 73.069 C 226.337 73.069,226.111 72.854,225.650 72.590 C 225.189 72.327,224.661 72.111,224.476 72.111 C 224.292 72.111,224.518 72.327,224.979 72.590 M226.655 73.185 C 226.655 73.444,231.078 76.158,231.239 75.998 C 231.316 75.920,230.656 75.436,229.772 74.922 C 228.888 74.408,227.825 73.769,227.410 73.502 C 226.995 73.235,226.655 73.092,226.655 73.185 M171.500 74.161 C 170.451 74.751,166.135 77.655,165.286 78.342 C 162.287 80.770,159.134 83.719,157.594 85.537 C 156.596 86.715,155.481 88.018,155.116 88.433 C 154.750 88.847,154.591 89.186,154.761 89.185 C 154.932 89.183,155.422 88.667,155.851 88.038 C 158.281 84.468,167.214 76.732,171.411 74.561 C 171.921 74.298,172.339 74.010,172.339 73.923 C 172.339 73.708,172.275 73.726,171.500 74.161 M231.993 76.561 C 232.472 77.159,233.697 77.944,233.697 77.654 C 233.697 77.568,233.206 77.154,232.607 76.733 C 231.834 76.191,231.655 76.141,231.993 76.561 M234.034 77.980 C 234.035 78.151,234.596 78.667,235.280 79.128 C 235.963 79.589,238.263 81.701,240.390 83.820 C 242.747 86.168,243.558 86.857,242.466 85.583 C 240.926 83.785,239.709 82.635,234.786 78.330 C 234.371 77.967,234.033 77.810,234.034 77.980 M153.562 90.528 C 153.169 91.081,152.922 91.534,153.014 91.534 C 153.106 91.534,153.504 91.081,153.898 90.528 C 154.292 89.975,154.539 89.522,154.446 89.522 C 154.354 89.522,153.956 89.975,153.562 90.528 M246.102 90.528 C 246.496 91.081,246.894 91.534,246.986 91.534 C 247.078 91.534,246.831 91.081,246.438 90.528 C 246.044 89.975,245.646 89.522,245.554 89.522 C 245.461 89.522,245.708 89.975,246.102 90.528 M247.832 93.057 C 248.217 93.710,248.606 94.172,248.695 94.082 C 248.854 93.923,247.527 91.869,247.264 91.869 C 247.191 91.869,247.446 92.404,247.832 93.057 M151.154 94.318 C 149.757 96.551,148.825 98.308,148.963 98.446 C 149.033 98.517,149.303 98.159,149.563 97.652 C 149.823 97.146,150.540 95.926,151.157 94.943 C 151.773 93.959,152.223 93.100,152.156 93.033 C 152.089 92.966,151.638 93.544,151.154 94.318 M147.598 101.067 C 147.012 102.354,147.101 102.948,147.706 101.788 C 147.987 101.250,148.169 100.667,148.111 100.493 C 148.052 100.318,147.822 100.577,147.598 101.067 M251.826 100.419 C 251.826 100.604,252.042 101.132,252.305 101.593 C 252.569 102.054,252.784 102.280,252.784 102.096 C 252.784 101.911,252.569 101.383,252.305 100.922 C 252.042 100.461,251.826 100.235,251.826 100.419 M145.263 107.619 C 144.674 109.507,144.772 110.107,145.384 108.359 C 145.663 107.563,145.844 106.769,145.786 106.596 C 145.728 106.422,145.493 106.883,145.263 107.619 M255.184 110.478 C 255.174 110.847,255.312 111.375,255.490 111.651 C 255.921 112.318,255.921 111.480,255.490 110.478 L 255.202 109.807 255.184 110.478 M256.027 114.166 C 256.108 115.272,256.304 117.234,256.462 118.525 L 256.750 120.872 256.626 118.189 C 256.558 116.714,256.362 114.753,256.191 113.831 L 255.879 112.154 256.027 114.166 M143.895 113.705 C 143.864 114.189,143.760 115.094,143.662 115.717 C 143.501 116.753,143.516 116.779,143.846 116.022 C 144.044 115.567,144.149 114.662,144.079 114.010 C 143.987 113.154,143.936 113.069,143.895 113.705 M143.309 123.554 C 143.309 127.242,143.358 128.797,143.418 127.009 C 143.478 125.220,143.479 122.203,143.419 120.303 C 143.359 118.403,143.310 119.866,143.309 123.554 M256.606 128.248 C 256.608 129.539,256.668 130.026,256.741 129.330 C 256.814 128.635,256.812 127.579,256.738 126.983 C 256.664 126.388,256.605 126.957,256.606 128.248 M143.721 131.936 C 143.833 132.858,143.981 133.676,144.050 133.752 C 144.312 134.047,144.112 131.568,143.822 130.930 C 143.617 130.479,143.583 130.808,143.721 131.936 M256.040 131.504 C 255.927 131.926,255.850 132.724,255.870 133.277 C 255.894 133.972,255.991 133.767,256.183 132.617 C 256.476 130.866,256.390 130.198,256.040 131.504 M255.323 135.792 C 255.197 136.189,255.169 136.589,255.261 136.681 C 255.354 136.773,255.532 136.524,255.658 136.127 C 255.784 135.731,255.811 135.331,255.719 135.239 C 255.627 135.146,255.449 135.396,255.323 135.792 M144.876 137.636 C 144.864 137.821,145.069 138.650,145.331 139.480 C 145.592 140.310,145.805 140.687,145.803 140.319 C 145.800 139.619,144.911 137.049,144.876 137.636 M254.846 137.832 C 254.832 138.125,254.509 139.310,254.129 140.467 C 253.750 141.624,253.501 142.632,253.578 142.709 C 253.813 142.944,255.217 138.150,255.040 137.713 C 254.934 137.453,254.863 137.497,254.846 137.832 M146.521 142.932 C 146.521 143.362,147.933 146.898,148.055 146.776 C 148.125 146.706,147.870 145.828,147.490 144.825 C 146.826 143.075,146.521 142.480,146.521 142.932 M252.934 143.707 C 252.810 144.056,252.503 144.856,252.251 145.483 C 251.999 146.111,251.849 146.680,251.917 146.748 C 251.986 146.817,252.366 146.091,252.763 145.136 C 253.160 144.180,253.412 143.325,253.322 143.236 C 253.232 143.146,253.058 143.358,252.934 143.707 M250.152 149.900 C 249.771 150.688,249.507 151.379,249.565 151.437 C 249.623 151.495,250.003 150.919,250.409 150.158 C 250.816 149.397,251.080 148.705,250.996 148.621 C 250.912 148.537,250.532 149.113,250.152 149.900 M150.249 151.288 C 152.642 155.760,161.674 166.639,162.993 166.639 C 163.138 166.639,162.484 165.922,161.538 165.046 C 160.099 163.712,158.481 162.050,156.748 160.126 C 155.720 158.985,153.160 155.404,151.755 153.143 C 150.245 150.714,149.353 149.616,150.249 151.288 M248.355 152.939 C 247.536 154.379,247.783 154.446,248.708 153.036 C 249.122 152.403,249.347 151.887,249.207 151.888 C 249.067 151.889,248.683 152.362,248.355 152.939 M246.247 156.335 C 245.891 156.754,245.153 157.697,244.607 158.431 C 243.006 160.586,240.867 162.810,236.044 167.336 C 235.214 168.115,234.837 168.546,235.205 168.295 C 237.302 166.866,244.012 159.945,246.039 157.121 C 247.217 155.481,247.326 155.066,246.247 156.335 M164.182 167.751 C 166.101 169.323,167.771 170.483,167.519 170.068 C 167.235 169.599,163.775 166.974,163.442 166.974 C 163.328 166.974,163.661 167.323,164.182 167.751 M231.261 170.743 C 230.382 171.308,229.731 171.837,229.812 171.919 C 229.969 172.076,233.026 170.068,233.026 169.808 C 233.026 169.602,233.065 169.582,231.261 170.743 M226.252 173.644 C 223.875 174.998,223.865 175.239,226.236 174.050 C 227.389 173.472,228.332 172.926,228.332 172.837 C 228.332 172.546,227.857 172.730,226.252 173.644 M175.021 174.510 C 175.021 174.726,177.738 176.027,178.185 176.025 C 178.381 176.025,177.799 175.647,176.892 175.187 C 175.149 174.303,175.021 174.256,175.021 174.510 M222.484 175.535 C 221.647 176.168,221.958 176.164,223.180 175.526 C 223.709 175.250,223.915 175.029,223.638 175.034 C 223.361 175.038,222.842 175.264,222.484 175.535 M181.202 177.215 C 181.744 177.497,182.423 177.665,182.711 177.587 C 183.042 177.498,182.964 177.431,182.501 177.407 C 182.097 177.385,181.673 177.217,181.559 177.033 C 181.445 176.848,181.097 176.698,180.785 176.699 C 180.432 176.701,180.590 176.896,181.202 177.215 M218.424 176.983 C 218.249 177.140,217.359 177.470,216.447 177.716 C 215.535 177.961,214.966 178.221,215.181 178.293 C 215.523 178.407,219.544 177.159,219.922 176.822 C 219.999 176.753,219.765 176.697,219.402 176.697 C 219.039 176.697,218.599 176.826,218.424 176.983 M189.438 179.381 C 190.268 179.552,191.702 179.765,192.624 179.857 L 194.300 180.023 192.791 179.713 C 191.961 179.543,190.528 179.329,189.606 179.238 L 187.930 179.072 189.438 179.381 M209.053 179.380 C 208.684 179.538,207.779 179.703,207.041 179.745 C 205.923 179.809,205.867 179.842,206.706 179.942 C 207.259 180.008,208.692 179.845,209.891 179.580 C 211.528 179.218,211.778 179.097,210.897 179.095 C 210.251 179.093,209.422 179.221,209.053 179.380 M198.419 180.298 C 199.393 180.366,200.902 180.365,201.772 180.296 C 202.641 180.227,201.844 180.172,200.000 180.173 C 198.156 180.174,197.444 180.230,198.419 180.298 M199.250 187.332 C 199.760 187.409,200.514 187.407,200.927 187.327 C 201.339 187.248,200.922 187.185,200.000 187.187 C 199.078 187.190,198.741 187.255,199.250 187.332 M189.941 187.762 L 188.600 188.002 189.774 188.030 C 190.419 188.046,191.551 187.934,192.288 187.781 L 193.630 187.504 192.456 187.513 C 191.811 187.518,190.679 187.630,189.941 187.762 M207.712 187.781 C 208.449 187.934,209.581 188.048,210.226 188.036 C 211.320 188.015,211.298 187.995,209.891 187.745 C 207.753 187.364,205.850 187.396,207.712 187.781 M185.018 188.271 C 184.923 188.366,183.954 188.586,182.867 188.760 L 180.889 189.077 182.733 188.914 C 185.780 188.645,187.917 188.192,186.393 188.139 C 185.732 188.116,185.113 188.175,185.018 188.271 M213.915 188.438 C 214.744 188.610,216.253 188.822,217.267 188.910 C 219.052 189.064,219.063 189.060,217.603 188.787 C 215.177 188.333,211.928 188.026,213.915 188.438 M179.212 189.438 L 178.541 189.727 179.212 189.745 C 179.581 189.755,180.109 189.617,180.386 189.438 C 181.052 189.008,180.214 189.008,179.212 189.438 M219.614 189.438 C 219.891 189.617,220.419 189.755,220.788 189.745 L 221.459 189.727 220.788 189.438 C 219.786 189.008,218.948 189.008,219.614 189.438 M176.194 190.109 L 175.524 190.397 176.194 190.416 C 176.563 190.426,177.091 190.288,177.368 190.109 C 178.035 189.678,177.197 189.678,176.194 190.109 M222.800 190.109 C 223.168 190.267,223.697 190.397,223.973 190.397 C 224.290 190.397,224.228 190.291,223.806 190.109 C 223.437 189.950,222.909 189.821,222.632 189.821 C 222.315 189.821,222.377 189.927,222.800 190.109 M173.009 190.947 C 171.424 191.557,172.491 191.566,174.183 190.957 C 174.920 190.691,175.222 190.479,174.853 190.484 C 174.484 190.490,173.655 190.699,173.009 190.947 M226.655 191.100 C 226.932 191.287,227.448 191.442,227.801 191.445 C 228.659 191.452,228.391 191.260,227.158 190.984 C 226.424 190.820,226.288 190.851,226.655 191.100 M235.708 194.007 C 235.708 194.241,238.798 195.506,239.110 195.400 C 239.264 195.348,238.562 194.980,237.549 194.582 C 236.537 194.184,235.708 193.926,235.708 194.007 M161.609 194.971 C 160.514 195.597,160.898 195.604,162.325 194.984 C 162.946 194.714,163.227 194.493,162.951 194.493 C 162.674 194.492,162.070 194.707,161.609 194.971 M157.995 196.548 C 156.837 197.114,155.944 197.631,156.009 197.697 C 156.075 197.762,156.908 197.440,157.861 196.980 C 158.815 196.520,159.737 196.144,159.912 196.144 C 160.086 196.144,160.322 195.993,160.436 195.809 C 160.758 195.287,160.268 195.436,157.995 196.548 M239.732 195.624 C 239.732 195.895,243.838 197.850,244.021 197.666 C 244.105 197.583,243.287 197.112,242.204 196.621 C 241.121 196.130,240.122 195.662,239.983 195.581 C 239.845 195.500,239.732 195.520,239.732 195.624 M153.816 198.579 C 153.126 198.963,152.609 199.326,152.668 199.385 C 152.809 199.526,155.574 198.189,155.574 197.980 C 155.574 197.701,155.106 197.860,153.816 198.579 M149.548 201.022 C 148.908 201.474,148.485 201.844,148.607 201.844 C 148.901 201.844,151.215 200.476,151.215 200.302 C 151.215 200.000,150.650 200.245,149.548 201.022 M248.785 200.302 C 248.785 200.532,251.208 201.879,251.356 201.732 C 251.433 201.655,250.952 201.271,250.289 200.880 C 249.077 200.165,248.785 200.053,248.785 200.302 M145.988 203.316 C 142.676 205.552,142.104 205.956,139.883 207.628 C 138.720 208.504,137.916 209.220,138.096 209.220 C 138.276 209.220,138.860 208.853,139.393 208.404 C 140.676 207.325,147.417 202.610,147.949 202.420 C 148.178 202.338,148.290 202.196,148.198 202.105 C 148.106 202.013,147.111 202.558,145.988 203.316 M251.802 202.021 C 251.802 202.115,252.821 202.863,254.065 203.683 C 260.061 207.629,267.290 213.543,270.882 217.440 C 271.671 218.295,272.379 218.931,272.457 218.854 C 272.624 218.686,266.879 213.129,264.029 210.701 C 260.095 207.351,251.802 201.463,251.802 202.021 M133.572 212.888 C 130.377 215.733,123.051 223.551,123.051 224.116 C 123.051 224.219,124.290 222.908,125.803 221.204 C 129.201 217.378,132.208 214.386,135.403 211.651 C 136.750 210.499,137.728 209.558,137.576 209.562 C 137.425 209.565,135.623 211.062,133.572 212.888 M273.285 220.123 C 273.760 220.673,274.702 221.727,275.378 222.464 C 276.054 223.202,276.609 223.919,276.611 224.057 C 276.612 224.195,276.782 224.308,276.988 224.308 C 277.194 224.308,276.851 223.743,276.227 223.051 C 275.602 222.360,274.867 221.492,274.592 221.123 C 274.317 220.754,273.717 220.153,273.257 219.787 L 272.422 219.122 273.285 220.123 M120.334 227.578 C 119.184 229.191,118.099 230.700,117.923 230.930 C 117.748 231.161,117.688 231.350,117.790 231.350 C 117.892 231.350,118.854 230.127,119.927 228.633 C 121.000 227.139,122.085 225.630,122.338 225.280 C 122.591 224.930,122.714 224.644,122.612 224.644 C 122.510 224.644,121.485 225.964,120.334 227.578 M279.524 227.708 C 280.228 228.748,280.863 229.545,280.934 229.479 C 281.095 229.329,280.289 228.143,279.128 226.823 C 278.608 226.231,278.770 226.595,279.524 227.708 M281.934 231.014 C 282.341 231.660,283.008 232.752,283.416 233.443 C 283.824 234.133,284.267 234.698,284.402 234.700 C 284.669 234.703,282.172 230.719,281.566 230.176 C 281.361 229.992,281.526 230.369,281.934 231.014 M284.661 235.098 C 284.661 235.462,285.725 237.381,286.031 237.571 C 286.208 237.680,286.032 237.193,285.639 236.488 C 284.884 235.134,284.661 234.817,284.661 235.098 M114.918 235.602 C 114.834 235.753,114.352 236.593,113.847 237.469 C 113.342 238.345,112.996 239.061,113.078 239.061 C 113.329 239.061,115.375 235.633,115.218 235.475 C 115.137 235.395,115.002 235.452,114.918 235.602 M286.337 238.211 C 286.337 238.475,288.076 241.555,288.426 241.911 C 288.607 242.096,288.284 241.303,287.709 240.151 C 286.795 238.322,286.337 237.673,286.337 238.211 M110.239 244.267 C 110.136 244.631,109.949 245.231,109.824 245.599 C 109.699 245.968,109.842 245.846,110.142 245.328 C 110.442 244.810,110.629 244.210,110.558 243.995 C 110.486 243.781,110.343 243.903,110.239 244.267 M289.367 244.091 C 289.372 244.367,289.597 244.886,289.868 245.244 C 290.501 246.081,290.497 245.771,289.860 244.548 C 289.584 244.020,289.363 243.814,289.367 244.091 M290.437 246.438 C 291.222 248.588,292.479 251.472,292.584 251.367 C 292.733 251.218,290.791 246.408,290.468 246.123 C 290.350 246.020,290.336 246.161,290.437 246.438 M108.353 248.631 C 108.139 249.102,107.969 249.668,107.976 249.890 C 107.983 250.112,108.212 249.780,108.484 249.153 C 109.057 247.833,108.936 247.351,108.353 248.631 M293.393 253.859 C 293.385 254.161,293.598 254.915,293.868 255.536 C 294.501 256.994,294.517 256.390,293.891 254.652 C 293.625 253.915,293.401 253.558,293.393 253.859 M106.027 254.904 C 105.456 256.482,105.536 256.910,106.141 255.516 C 106.415 254.884,106.594 254.232,106.539 254.067 C 106.484 253.902,106.253 254.278,106.027 254.904 M105.113 257.502 C 104.987 257.899,104.960 258.299,105.052 258.391 C 105.144 258.483,105.323 258.234,105.448 257.837 C 105.574 257.441,105.602 257.041,105.510 256.949 C 105.417 256.856,105.239 257.105,105.113 257.502 M294.394 257.167 C 294.394 257.443,294.540 257.896,294.719 258.173 C 295.008 258.620,295.044 258.620,295.044 258.173 C 295.044 257.896,294.898 257.443,294.719 257.167 C 294.430 256.720,294.394 256.720,294.394 257.167 M295.060 259.374 C 295.062 259.728,295.218 260.243,295.405 260.520 C 295.654 260.887,295.685 260.751,295.520 260.017 C 295.245 258.784,295.053 258.516,295.060 259.374 M104.649 259.403 C 104.628 259.618,104.513 260.071,104.393 260.408 C 104.225 260.885,104.269 260.937,104.592 260.639 C 104.821 260.428,104.936 259.976,104.848 259.633 C 104.760 259.291,104.671 259.187,104.649 259.403 M103.870 262.196 C 103.750 262.842,103.564 263.822,103.456 264.376 C 103.306 265.147,103.381 265.069,103.780 264.040 C 104.067 263.303,104.253 262.322,104.194 261.861 C 104.103 261.145,104.055 261.194,103.870 262.196 M295.773 261.861 C 295.775 262.322,295.979 263.227,296.228 263.873 C 296.819 265.407,296.823 264.813,296.236 262.699 C 295.966 261.729,295.772 261.376,295.773 261.861 M102.975 266.220 C 102.947 266.496,102.841 267.100,102.738 267.561 C 102.578 268.285,102.604 268.318,102.933 267.803 C 103.142 267.475,103.248 266.871,103.169 266.461 C 103.090 266.052,103.002 265.943,102.975 266.220 M296.760 266.387 C 296.749 266.756,296.887 267.284,297.066 267.561 C 297.497 268.227,297.497 267.390,297.066 266.387 L 296.778 265.717 296.760 266.387 M297.425 270.103 C 297.438 270.826,297.584 271.718,297.748 272.087 C 297.944 272.525,297.979 272.118,297.847 270.914 C 297.605 268.699,297.393 268.290,297.425 270.103 M101.979 272.087 C 101.731 273.747,101.595 275.557,101.678 276.111 C 101.785 276.831,101.842 276.659,101.878 275.505 C 101.905 274.618,102.091 273.245,102.290 272.454 C 102.490 271.662,102.603 270.577,102.542 270.042 C 102.477 269.478,102.241 270.337,101.979 272.087 M298.163 274.267 C 298.163 275.096,298.229 275.436,298.309 275.021 C 298.389 274.606,298.389 273.927,298.309 273.512 C 298.229 273.097,298.163 273.437,298.163 274.267 M101.157 279.261 C 101.028 280.441,100.943 282.327,100.969 283.452 C 101.005 285.000,101.087 284.600,101.306 281.811 C 101.628 277.705,101.524 275.920,101.157 279.261 M298.659 281.308 C 298.755 283.613,298.889 285.562,298.956 285.638 C 299.183 285.899,299.021 280.479,298.751 278.793 C 298.582 277.736,298.548 278.665,298.659 281.308 M100.946 305.309 C 100.959 306.215,101.105 307.259,101.271 307.628 C 101.465 308.060,101.501 307.524,101.371 306.119 C 101.125 303.469,100.914 303.067,100.946 305.309 M298.798 305.113 C 298.763 305.759,298.662 306.890,298.573 307.628 L 298.410 308.969 298.762 307.848 C 298.955 307.231,299.056 306.100,298.987 305.333 C 298.867 304.016,298.856 304.004,298.798 305.113 M101.636 309.472 C 101.618 309.933,101.833 310.914,102.114 311.651 C 102.640 313.029,102.595 312.531,101.948 309.807 C 101.725 308.865,101.663 308.799,101.636 309.472 M297.763 311.174 C 297.524 312.104,297.393 312.928,297.471 313.006 C 297.549 313.084,297.808 312.388,298.046 311.458 C 298.285 310.528,298.416 309.704,298.338 309.626 C 298.260 309.548,298.001 310.244,297.763 311.174 M103.287 314.893 C 103.253 315.316,104.627 318.284,104.784 318.127 C 104.871 318.041,104.573 317.227,104.123 316.320 C 103.673 315.412,103.296 314.770,103.287 314.893 M296.088 315.792 C 295.888 316.164,295.726 316.667,295.727 316.910 C 295.728 317.153,295.957 316.914,296.236 316.379 C 296.515 315.845,296.677 315.341,296.596 315.261 C 296.516 315.180,296.287 315.419,296.088 315.792 M294.081 319.718 C 293.694 320.375,293.529 320.818,293.715 320.703 C 294.078 320.478,295.167 318.525,294.929 318.525 C 294.850 318.525,294.469 319.062,294.081 319.718 M106.181 320.453 C 106.912 321.614,108.298 323.333,108.298 323.078 C 108.298 322.822,105.929 319.531,105.745 319.531 C 105.665 319.531,105.862 319.946,106.181 320.453 M290.360 324.187 C 288.793 325.796,286.719 327.620,285.751 328.240 C 284.783 328.859,284.059 329.435,284.142 329.518 C 284.589 329.965,291.166 324.323,292.756 322.129 C 293.757 320.747,293.472 320.992,290.360 324.187 M108.634 323.549 C 108.634 323.866,111.877 326.880,113.337 327.919 C 113.885 328.310,114.334 328.500,114.334 328.343 C 114.334 328.186,113.876 327.787,113.317 327.457 C 112.757 327.126,111.475 326.051,110.467 325.066 C 109.458 324.082,108.634 323.400,108.634 323.549 M116.345 329.749 C 116.345 329.965,119.062 331.266,119.510 331.264 C 119.706 331.264,119.124 330.886,118.216 330.426 C 116.473 329.542,116.345 329.495,116.345 329.749 M281.160 330.773 C 280.323 331.406,280.633 331.403,281.856 330.765 C 282.384 330.489,282.590 330.268,282.313 330.273 C 282.037 330.277,281.518 330.503,281.160 330.773 M122.548 332.421 C 123.286 332.702,124.267 332.917,124.728 332.899 C 125.401 332.872,125.335 332.810,124.392 332.587 C 121.668 331.940,121.171 331.895,122.548 332.421 M277.117 332.272 C 276.871 332.668,277.200 332.668,278.122 332.272 C 278.769 331.994,278.767 331.983,278.058 331.960 C 277.654 331.947,277.230 332.087,277.117 332.272 M275.021 332.838 C 275.344 332.922,275.872 332.922,276.194 332.838 C 276.517 332.754,276.253 332.685,275.608 332.685 C 274.962 332.685,274.698 332.754,275.021 332.838 M126.404 333.260 C 127.231 333.542,130.000 333.731,129.729 333.487 C 129.652 333.418,128.684 333.274,127.578 333.168 C 126.274 333.042,125.861 333.075,126.404 333.260 M271.417 333.277 L 270.075 333.518 271.417 333.532 C 272.154 333.540,273.135 333.425,273.596 333.277 L 274.434 333.009 273.596 333.023 C 273.135 333.031,272.154 333.145,271.417 333.277 " stroke="none" fill="#747471" fill-rule="evenodd"></path></g></svg>