<?xml version="1.0" standalone="no"?>
<!DOCTYPE svg PUBLIC "-//W3C//DTD SVG 20010904//EN"
 "http://www.w3.org/TR/2001/REC-SVG-20010904/DTD/svg10.dtd">
<svg version="1.0" xmlns="http://www.w3.org/2000/svg"
 width="500.000000pt" height="435.000000pt" viewBox="0 0 500.000000 435.000000"
 preserveAspectRatio="xMidYMid meet">

<g transform="translate(0.000000,435.000000) scale(0.100000,-0.100000)"
fill="#000000" stroke="none">
<path d="M616 3638 c-44 -63 -17 -79 254 -148 127 -32 233 -60 235 -62 2 -2
188 -491 415 -1087 l411 -1084 -123 -121 c-233 -230 -307 -394 -241 -534 14
-29 79 -82 115 -94 5 -2 -3 -27 -18 -56 -40 -77 -45 -172 -12 -243 33 -73 66
-109 130 -144 46 -26 63 -30 133 -30 70 0 87 4 134 30 65 36 105 83 132 155
28 72 22 160 -14 224 l-26 46 610 0 609 0 -21 -43 c-14 -27 -24 -67 -27 -113
-4 -61 -1 -80 20 -125 102 -223 403 -231 516 -14 35 68 37 180 4 242 -12 23
-22 45 -22 48 0 3 29 5 63 5 49 0 68 4 80 18 23 25 21 58 -3 82 -20 20 -33 20
-1122 20 -1030 0 -1105 1 -1138 18 -46 22 -58 58 -42 119 23 83 81 163 221
304 l136 136 979 97 c539 54 988 101 997 106 9 5 19 16 22 25 4 8 50 323 103
700 78 551 94 691 86 711 l-12 24 -1369 0 c-1083 0 -1371 3 -1379 13 -5 6 -64
156 -131 331 -66 176 -124 323 -129 328 -12 12 -499 138 -534 138 -17 0 -33
-9 -42 -22z m1174 -1098 l0 -201 -72 3 -73 3 -72 185 c-39 102 -72 191 -72
198 -1 9 34 12 144 12 l145 0 0 -200z m460 0 l0 -200 -170 0 -170 0 0 200 0
200 170 0 170 0 0 -200z m465 0 l0 -195 -172 -3 -173 -2 0 200 0 200 173 -2
172 -3 0 -195z m465 0 l0 -200 -172 2 -173 3 -3 185 c-1 101 0 190 2 197 4 10
46 13 176 13 l170 0 0 -200z m460 0 l0 -200 -170 0 -170 0 0 200 0 200 170 0
170 0 0 -200z m450 176 c0 -13 -11 -101 -25 -196 -14 -95 -25 -174 -25 -176 0
-2 -63 -4 -140 -4 l-140 0 0 200 0 200 165 0 165 0 0 -24z m-2300 -618 c0 -67
-2 -119 -5 -117 -2 3 -15 34 -29 70 -13 35 -33 88 -45 117 l-21 52 50 0 50 0
0 -122z m460 -73 l0 -195 -170 0 -170 0 0 195 0 195 170 0 170 0 0 -195z m470
0 l0 -195 -175 0 -175 0 0 195 0 195 175 0 175 0 0 -195z m460 0 l0 -195 -175
0 -175 0 0 195 0 195 175 0 175 0 0 -195z m460 0 l0 -195 -170 0 -170 0 0 195
0 195 170 0 170 0 0 -195z m380 187 c0 -5 -11 -89 -25 -188 -14 -98 -25 -182
-25 -186 0 -5 -47 -8 -105 -8 l-105 0 0 195 0 195 130 0 c72 0 130 -4 130 -8z
m-1770 -692 c0 -143 -3 -192 -12 -195 -7 -3 -56 -6 -108 -7 l-94 -3 -62 160
c-35 88 -63 177 -63 198 l-1 37 170 0 170 0 0 -190z m470 25 c0 -124 -3 -167
-12 -170 -13 -4 -297 -35 -324 -35 -11 0 -14 35 -14 185 l0 185 175 0 175 0 0
-165z m460 21 l0 -145 -42 -5 c-88 -12 -238 -26 -273 -26 l-35 0 0 160 0 160
175 0 175 0 0 -144z m458 22 l-3 -123 -115 -12 c-63 -6 -139 -14 -167 -17
l-53 -6 0 140 0 140 170 0 171 0 -3 -122z m312 117 c0 -11 -31 -209 -33 -211
-1 -1 -37 -5 -79 -9 l-78 -7 0 116 0 116 95 0 c52 0 95 -2 95 -5z m-280 -1238
c80 -42 111 -138 70 -221 -55 -114 -216 -123 -287 -16 -32 46 -32 134 0 181
26 39 97 79 143 79 17 0 50 -10 74 -23z m-1670 -9 c58 -40 75 -72 75 -143 0
-69 -15 -99 -69 -139 -39 -30 -143 -30 -183 0 -102 75 -99 211 6 281 47 32
125 32 171 1z"/>
</g>
</svg>
