<?xml version="1.0" standalone="no"?>
<!DOCTYPE svg PUBLIC "-//W3C//DTD SVG 20010904//EN"
 "http://www.w3.org/TR/2001/REC-SVG-20010904/DTD/svg10.dtd">
<svg version="1.0" xmlns="http://www.w3.org/2000/svg"
 width="500.000000pt" height="402.000000pt" viewBox="0 0 500.000000 402.000000"
 preserveAspectRatio="xMidYMid meet">

<g transform="translate(0.000000,402.000000) scale(0.100000,-0.100000)"
fill="#000000" stroke="none">
<path d="M1585 2976 c-336 -67 -612 -316 -726 -656 -91 -272 -23 -592 178
-833 52 -63 1472 -1427 1485 -1427 9 0 1288 1244 1376 1338 113 121 214 300
254 450 27 103 29 296 5 401 -83 349 -332 608 -674 703 -65 18 -105 22 -243
22 -151 0 -172 -2 -253 -27 -162 -50 -323 -148 -417 -255 l-52 -59 -51 54
c-117 124 -292 227 -462 273 -103 28 -318 36 -420 16z"/>
</g>
</svg>
